<svg id="Capa_1" enable-background="new 0 0 512 512" height="512" viewBox="0 0 512 512" width="512" xmlns="http://www.w3.org/2000/svg"><path d="m44.355 380.353h423.287v54.617h-423.287z" fill="#ffaa5c" transform="matrix(-1 0 0 -1 511.998 815.324)"/><path d="m44.355 416.935h423.287v18.035h-423.287z" fill="#ff9838"/><path d="m467.642 380.353 36.843-167.583s-47.277.431-76.355 26.415c0 0 10.572 26.033-1.398 47.181-16.671 29.452-59.634 25.59-79.318 9.579-36.106-29.37-30.038-74.989-2.142-126.476 0 0-26.45-60.54-89.274-92.439-62.824 31.899-89.274 92.439-89.274 92.439 27.896 51.487 33.964 97.106-2.142 126.476-19.684 16.012-62.647 19.874-79.318-9.579-11.97-21.148-1.398-47.181-1.398-47.181-29.076-25.983-76.353-26.414-76.353-26.414l36.843 167.583h423.286z" fill="#ffe55a"/><path d="m40.39 362.318 3.965 18.035h423.287l3.965-18.035z" fill="#ffd500"/><path d="m286.07 201.875c0-16.608-13.463-46.818-30.071-46.818s-30.071 30.21-30.071 46.818 13.463 30.071 30.071 30.071 30.071-13.463 30.071-30.071z" fill="#ff4755"/><path d="m255.999 213.91c-13.713 0-25.274-9.182-28.89-21.732-.763 3.489-1.181 6.801-1.181 9.696 0 16.608 13.463 30.071 30.071 30.071s30.071-13.463 30.071-30.071c0-2.895-.417-6.207-1.181-9.696-3.616 12.55-15.177 21.732-28.89 21.732z" fill="#fc2b3a"/><path d="m104.438 427.455h-52.568v-39.587h324.468c4.151 0 7.515-3.364 7.515-7.515s-3.364-7.515-7.515-7.515h-325.941l-33.389-151.875c13.675 1.473 39.241 6.118 58.117 20.722-2.748 9.559-6.671 30.237 3.6 48.383 7.409 13.09 19.714 21.591 35.587 24.585 19.023 3.585 41.131-1.587 55.013-12.879 3.219-2.619 3.706-7.352 1.087-10.572-2.62-3.219-7.352-3.706-10.572-1.088-10.477 8.523-28.055 12.54-42.743 9.769-7.94-1.498-18.773-5.701-25.293-17.219-9.982-17.635-1.059-40.442-.976-40.652 1.195-2.941.412-6.316-1.955-8.432-30.832-27.553-79.247-28.307-81.293-28.326-4.745 0-8.436 4.451-7.408 9.128l36.668 166.788v53.8c0 4.151 3.365 7.515 7.515 7.515h60.083c4.15 0 7.515-3.364 7.515-7.515s-3.365-7.515-7.515-7.515z"/><path d="m510.32 208.035c-1.441-1.776-3.61-2.795-5.903-2.779-2.046.019-50.461.773-81.293 28.326-2.356 2.106-3.136 5.479-1.963 8.413.091.228 9.014 23.035-.969 40.67-6.52 11.519-17.353 15.721-25.294 17.219-14.686 2.769-32.264-1.248-42.742-9.769-29.754-24.203-29.844-62.495-.276-117.066 1.103-2.036 1.206-4.467.279-6.589-1.124-2.572-28.272-63.388-92.759-96.13-2.139-1.086-4.666-1.086-6.804 0-64.486 32.743-91.634 93.558-92.758 96.13-.927 2.122-.824 4.553.279 6.589 21.97 40.549 27.523 72.917 16.505 96.206-1.774 3.752-.172 8.231 3.579 10.006 3.752 1.775 8.232.173 10.007-3.579 12.845-27.151 7.776-62.932-15.058-106.384 6.237-12.315 31.623-57.366 80.848-83.79 49.227 26.426 74.616 71.484 80.848 83.789-31.214 59.378-29.26 103.937 5.827 132.478 13.881 11.292 35.992 16.464 55.011 12.879 15.873-2.994 28.179-11.495 35.588-24.585 10.271-18.146 6.348-38.823 3.6-48.382 18.826-14.553 44.423-19.218 58.114-20.708l-33.386 151.86h-55.204c-4.151 0-7.515 3.364-7.515 7.515s3.364 7.515 7.515 7.515h53.731v39.587h-325.63c-4.15 0-7.515 3.364-7.515 7.515s3.365 7.515 7.515 7.515h333.146c4.151 0 7.515-3.364 7.515-7.515v-53.8l36.668-166.786c.49-2.236-.064-4.573-1.506-6.35z"/><path d="m293.584 201.875c0-9.738-3.839-22.822-9.78-33.335-7.653-13.541-17.527-20.998-27.805-20.998-10.277 0-20.153 7.457-27.805 20.998-5.941 10.513-9.78 23.597-9.78 33.335 0 20.724 16.861 37.585 37.586 37.585 20.723.001 37.584-16.861 37.584-37.585zm-60.142 0c0-17.844 13.854-39.303 22.556-39.303s22.556 21.46 22.556 39.303c0 12.437-10.118 22.556-22.556 22.556-12.437 0-22.556-10.118-22.556-22.556z"/></svg>