<svg xmlns="http://www.w3.org/2000/svg" viewBox="0 0 327.83 61.54"><defs><style>.cls-1{fill:#4b2e83;}.cls-2{fill:none;stroke:#333;stroke-miterlimit:10;stroke-width:4px;}</style></defs><title>Team1</title><g id="Layer_2" data-name="Layer 2"><g id="Layer_1-2" data-name="Layer 1"><circle class="cls-1" cx="27.38" cy="16.2" r="15.2"/><path class="cls-1" d="M54.83,59.54C54.83,44,42.48,31.4,27.23,31.4h.37C12.35,31.4,0,44,0,59.54"/><circle class="cls-2" cx="208.38" cy="17.2" r="15.2"/><path class="cls-2" d="M235.83,60.54c0-15.55-12.35-28.14-27.6-28.14h.37C193.35,32.4,181,45,181,60.54"/><circle class="cls-2" cx="118.38" cy="17.2" r="15.2"/><path class="cls-2" d="M145.83,60.54c0-15.55-12.35-28.14-27.6-28.14h.37C103.35,32.4,91,45,91,60.54"/><circle class="cls-2" cx="298.38" cy="18.2" r="15.2"/><path class="cls-2" d="M325.83,61.54c0-15.55-12.35-28.14-27.6-28.14h.37C283.35,33.4,271,46,271,61.54"/></g></g></svg>