<svg xmlns="http://www.w3.org/2000/svg" viewBox="0 0 419.83 60.54"><defs><style>.cls-1{fill:#4b2e83;}.cls-2{fill:none;stroke:#333;stroke-miterlimit:10;stroke-width:4px;}</style></defs><title>Asset 4</title><g id="Layer_2" data-name="Layer 2"><g id="Layer_1-2" data-name="Layer 1"><circle class="cls-1" cx="209.38" cy="16.2" r="15.2"/><path class="cls-1" d="M236.83,59.54c0-15.55-12.35-28.14-27.6-28.14h.37C194.35,31.4,182,44,182,59.54"/><circle class="cls-2" cx="390.38" cy="17.2" r="15.2"/><path class="cls-2" d="M417.83,60.54c0-15.55-12.35-28.14-27.6-28.14h.37C375.35,32.4,363,45,363,60.54"/><circle class="cls-2" cx="300.38" cy="17.2" r="15.2"/><path class="cls-2" d="M327.83,60.54c0-15.55-12.35-28.14-27.6-28.14h.37C285.35,32.4,273,45,273,60.54"/><circle class="cls-1" cx="118.38" cy="16.2" r="15.2"/><path class="cls-1" d="M145.83,59.54c0-15.55-12.35-28.14-27.6-28.14h.37C103.35,31.4,91,44,91,59.54"/><circle class="cls-1" cx="27.38" cy="17.2" r="15.2"/><path class="cls-1" d="M54.83,60.54C54.83,45,42.48,32.4,27.23,32.4h.37C12.35,32.4,0,45,0,60.54"/></g></g></svg>